<svg xmlns="http://www.w3.org/2000/svg" version="1.1" xmlns:xlink="http://www.w3.org/1999/xlink" xmlns:svgjs="http://svgjs.com/svgjs" width="1440" height="560" preserveAspectRatio="none" viewBox="0 0 1440 560"><g mask="url(&quot;#SvgjsMask1014&quot;)" fill="none"><rect width="1440" height="560" x="0" y="0" fill="#0e2a47"></rect><path d="M587.7632187059681 583.0033055366725L700.053215368885 642.7089558435814 759.7588656757938 530.4189591806645 647.468869012877 470.7133088737557z" fill="rgba(28, 56, 142, 0.4)" class="triangle-float1"></path><path d="M249.49081230717962 282.3210684259618L220.86529245451322 370.42135961959656 337.59110350081437 310.9465882786282z" fill="rgba(28, 56, 142, 0.4)" class="triangle-float3"></path><path d="M1438.588,140.576C1473.955,140.51,1506.226,122.964,1525.609,93.381C1547.272,60.318,1559.896,18.721,1541.272,-16.145C1521.791,-52.615,1479.932,-69.072,1438.588,-69.531C1396.327,-70,1351.859,-55.712,1331.877,-18.47C1312.655,17.355,1328.349,59.947,1351.001,93.708C1370.775,123.179,1403.098,140.642,1438.588,140.576" fill="rgba(28, 56, 142, 0.4)" class="triangle-float1"></path><path d="M-42.22 149.8 a165.99 165.99 0 1 0 331.98 0 a165.99 165.99 0 1 0 -331.98 0z" fill="rgba(28, 56, 142, 0.4)" class="triangle-float2"></path><path d="M1138.658601740681 140.7830033039662L1056.898831244894 53.106383685484985 969.2222116264127 134.866154181272 1050.9819821221997 222.54277379975326z" fill="rgba(28, 56, 142, 0.4)" class="triangle-float1"></path><path d="M791.75 324.87 a134.87 134.87 0 1 0 269.74 0 a134.87 134.87 0 1 0 -269.74 0z" fill="rgba(28, 56, 142, 0.4)" class="triangle-float3"></path><path d="M715.309,117.43C747.06,116.212,774.777,97.602,790.557,70.023C806.222,42.644,808.296,9.312,792.935,-18.239C777.174,-46.507,747.625,-63.153,715.309,-64.938C679.228,-66.931,640.055,-58.585,621.259,-27.722C601.887,4.086,609.094,44.953,629.346,76.209C647.867,104.793,681.274,118.736,715.309,117.43" fill="rgba(28, 56, 142, 0.4)" class="triangle-float1"></path><path d="M2.2813389251503295 363.75358697862305L158.33297258281985 363.9023075566056 92.19828250943736 244.59216838414858z" fill="rgba(28, 56, 142, 0.4)" class="triangle-float3"></path><path d="M121.22084740584293 75.00368700753606L-39.737816857787905 66.414374773355 22.03016050914343 193.05749605535732z" fill="rgba(28, 56, 142, 0.4)" class="triangle-float3"></path><path d="M1377.8329326926287 295.13516218109294L1397.491503393525 183.645867565431 1266.3436380769667 275.47659148019676z" fill="rgba(28, 56, 142, 0.4)" class="triangle-float1"></path><path d="M1272.014,618.129C1308.985,618.694,1337.191,589.065,1355.471,556.925C1373.501,525.224,1382.14,487.26,1364.649,455.258C1346.528,422.102,1309.734,402.003,1272.014,404.227C1237.418,406.266,1212.699,434.507,1196.543,465.167C1181.662,493.407,1178.739,525.813,1192.863,554.439C1208.923,586.989,1235.722,617.574,1272.014,618.129" fill="rgba(28, 56, 142, 0.4)" class="triangle-float3"></path><path d="M640.83 85.92 a145.06 145.06 0 1 0 290.12 0 a145.06 145.06 0 1 0 -290.12 0z" fill="rgba(28, 56, 142, 0.4)" class="triangle-float2"></path></g><defs><mask id="SvgjsMask1014"><rect width="1440" height="560" fill="#ffffff"></rect></mask><style>
            @keyframes float1 {
                0%{transform: translate(0, 0)}
                50%{transform: translate(-10px, 0)}
                100%{transform: translate(0, 0)}
            }

            .triangle-float1 {
                animation: float1 5s infinite;
            }

            @keyframes float2 {
                0%{transform: translate(0, 0)}
                50%{transform: translate(-5px, -5px)}
                100%{transform: translate(0, 0)}
            }

            .triangle-float2 {
                animation: float2 4s infinite;
            }

            @keyframes float3 {
                0%{transform: translate(0, 0)}
                50%{transform: translate(0, -10px)}
                100%{transform: translate(0, 0)}
            }

            .triangle-float3 {
                animation: float3 6s infinite;
            }
        </style></defs></svg>